<svg width="36" height="36" viewBox="0 0 36 36" fill="none" xmlns="http://www.w3.org/2000/svg">
<g clip-path="url(#clip0_1467_12771)">
<g filter="url(#filter0_i_1467_12771)">
<rect x="13.5332" y="4.78711" width="25.4516" height="19.0816" rx="4.84533" transform="rotate(45 13.5332 4.78711)" fill="#E09749"/>
</g>
<g filter="url(#filter1_f_1467_12771)">
<rect x="13.5332" y="4.92416" width="25.2578" height="17.9042" rx="4.74842" transform="rotate(45 13.5332 4.92416)" stroke="#E6A966" stroke-width="0.193813"/>
</g>
<g filter="url(#filter2_di_1467_12771)">
<rect x="14.332" y="5.58398" width="23.1972" height="16.7639" rx="4.41615" transform="rotate(45 14.332 5.58398)" fill="#E9E2DC"/>
</g>
<rect x="13.2432" y="24.4473" width="6.88085" height="1.45072" rx="0.72536" transform="rotate(-45 13.2432 24.4473)" fill="#B1A9A2"/>
<rect x="6.57324" y="17.7793" width="6.88085" height="1.45072" rx="0.72536" transform="rotate(-45 6.57324 17.7793)" fill="#B1A9A2"/>
<rect x="15.2051" y="26.4121" width="6.88085" height="1.45072" rx="0.72536" transform="rotate(-45 15.2051 26.4121)" fill="#B1A9A2"/>
<rect x="17.1455" y="28.3516" width="6.88085" height="1.45072" rx="0.72536" transform="rotate(-45 17.1455 28.3516)" fill="#B1A9A2"/>
<rect x="8.62305" y="19.8281" width="8.55533" height="5.20833" rx="0.52282" transform="rotate(-45 8.62305 19.8281)" fill="#55ACEE"/>
<rect x="18.1621" y="0.158203" width="25.4516" height="17.7585" rx="4.84533" transform="rotate(45 18.1621 0.158203)" fill="#4B311E" fill-opacity="0.8"/>
<g filter="url(#filter3_i_1467_12771)">
<rect x="18.4023" y="-0.0820312" width="25.4516" height="17.7585" rx="4.84533" transform="rotate(45 18.4023 -0.0820312)" fill="#F3A756"/>
</g>
<circle cx="20.2324" cy="5.25566" r="0.278837" transform="rotate(45 20.2324 5.25566)" fill="#4B0C00" fill-opacity="0.37"/>
<circle cx="23.8311" cy="8.85332" r="0.278837" transform="rotate(45 23.8311 8.85332)" fill="#4B0C00" fill-opacity="0.37"/>
<circle cx="27.4287" cy="12.4529" r="0.278837" transform="rotate(45 27.4287 12.4529)" fill="#4B0C00" fill-opacity="0.37"/>
<circle cx="31.0273" cy="16.0506" r="0.278837" transform="rotate(45 31.0273 16.0506)" fill="#4B0C00" fill-opacity="0.37"/>
<circle cx="16.2402" cy="5.6502" r="0.278837" transform="rotate(45 16.2402 5.6502)" fill="#4B0C00" fill-opacity="0.37"/>
<circle cx="19.8389" cy="9.24785" r="0.278837" transform="rotate(45 19.8389 9.24785)" fill="#4B0C00" fill-opacity="0.37"/>
<circle cx="23.4365" cy="12.8475" r="0.278837" transform="rotate(45 23.4365 12.8475)" fill="#4B0C00" fill-opacity="0.37"/>
<circle cx="27.0352" cy="16.4451" r="0.278837" transform="rotate(45 27.0352 16.4451)" fill="#4B0C00" fill-opacity="0.37"/>
<circle cx="30.6338" cy="20.0428" r="0.278837" transform="rotate(45 30.6338 20.0428)" fill="#4B0C00" fill-opacity="0.37"/>
<circle cx="15.8457" cy="9.64238" r="0.278837" transform="rotate(45 15.8457 9.64238)" fill="#4B0C00" fill-opacity="0.37"/>
<circle cx="19.4443" cy="13.24" r="0.278837" transform="rotate(45 19.4443 13.24)" fill="#4B0C00" fill-opacity="0.37"/>
<circle cx="23.042" cy="16.8396" r="0.278837" transform="rotate(45 23.042 16.8396)" fill="#4B0C00" fill-opacity="0.37"/>
<circle cx="26.6406" cy="20.4373" r="0.278837" transform="rotate(45 26.6406 20.4373)" fill="#4B0C00" fill-opacity="0.37"/>
<circle cx="11.8535" cy="10.0369" r="0.278837" transform="rotate(45 11.8535 10.0369)" fill="#4B0C00" fill-opacity="0.37"/>
<circle cx="15.4521" cy="13.6346" r="0.278837" transform="rotate(45 15.4521 13.6346)" fill="#4B0C00" fill-opacity="0.37"/>
<circle cx="19.0498" cy="17.2342" r="0.278837" transform="rotate(45 19.0498 17.2342)" fill="#4B0C00" fill-opacity="0.37"/>
<circle cx="22.6484" cy="20.8318" r="0.278837" transform="rotate(45 22.6484 20.8318)" fill="#4B0C00" fill-opacity="0.37"/>
<circle cx="26.2471" cy="24.4295" r="0.278837" transform="rotate(45 26.2471 24.4295)" fill="#4B0C00" fill-opacity="0.37"/>
<circle cx="11.459" cy="14.0291" r="0.278837" transform="rotate(45 11.459 14.0291)" fill="#4B0C00" fill-opacity="0.37"/>
<circle cx="15.0576" cy="17.6268" r="0.278837" transform="rotate(45 15.0576 17.6268)" fill="#4B0C00" fill-opacity="0.37"/>
<circle cx="18.6553" cy="21.2264" r="0.278837" transform="rotate(45 18.6553 21.2264)" fill="#4B0C00" fill-opacity="0.37"/>
<circle cx="22.2539" cy="24.824" r="0.278837" transform="rotate(45 22.2539 24.824)" fill="#4B0C00" fill-opacity="0.37"/>
</g>
<defs>
<filter id="filter0_i_1467_12771" x="2.04785" y="5.92276" width="27.4756" height="28.3468" filterUnits="userSpaceOnUse" color-interpolation-filters="sRGB">
<feFlood flood-opacity="0" result="BackgroundImageFix"/>
<feBlend mode="normal" in="SourceGraphic" in2="BackgroundImageFix" result="shape"/>
<feColorMatrix in="SourceAlpha" type="matrix" values="0 0 0 0 0 0 0 0 0 0 0 0 0 0 0 0 0 0 127 0" result="hardAlpha"/>
<feOffset dy="-0.872159"/>
<feGaussianBlur stdDeviation="0.494223"/>
<feComposite in2="hardAlpha" operator="arithmetic" k2="-1" k3="1"/>
<feColorMatrix type="matrix" values="0 0 0 0 0.286275 0 0 0 0 0.129412 0 0 0 0 0.0313726 0 0 0 1 0"/>
<feBlend mode="normal" in2="shape" result="effect1_innerShadow_1467_12771"/>
</filter>
<filter id="filter1_f_1467_12771" x="2.6246" y="6.67636" width="27.0174" height="27.0164" filterUnits="userSpaceOnUse" color-interpolation-filters="sRGB">
<feFlood flood-opacity="0" result="BackgroundImageFix"/>
<feBlend mode="normal" in="SourceGraphic" in2="BackgroundImageFix" result="shape"/>
<feGaussianBlur stdDeviation="0.0592827" result="effect1_foregroundBlur_1467_12771"/>
</filter>
<filter id="filter2_di_1467_12771" x="3.72618" y="6.35419" width="25.7605" height="26.239" filterUnits="userSpaceOnUse" color-interpolation-filters="sRGB">
<feFlood flood-opacity="0" result="BackgroundImageFix"/>
<feColorMatrix in="SourceAlpha" type="matrix" values="0 0 0 0 0 0 0 0 0 0 0 0 0 0 0 0 0 0 127 0" result="hardAlpha"/>
<feMorphology radius="0.193813" operator="dilate" in="SourceAlpha" result="effect1_dropShadow_1467_12771"/>
<feOffset/>
<feGaussianBlur stdDeviation="0.193813"/>
<feComposite in2="hardAlpha" operator="out"/>
<feColorMatrix type="matrix" values="0 0 0 0 0.242307 0 0 0 0 0.113707 0 0 0 0 0.0431028 0 0 0 0.8 0"/>
<feBlend mode="normal" in2="BackgroundImageFix" result="effect1_dropShadow_1467_12771"/>
<feBlend mode="normal" in="SourceGraphic" in2="effect1_dropShadow_1467_12771" result="shape"/>
<feColorMatrix in="SourceAlpha" type="matrix" values="0 0 0 0 0 0 0 0 0 0 0 0 0 0 0 0 0 0 127 0" result="hardAlpha"/>
<feOffset dy="-1.41317"/>
<feGaussianBlur stdDeviation="0.529937"/>
<feComposite in2="hardAlpha" operator="arithmetic" k2="-1" k3="1"/>
<feColorMatrix type="matrix" values="0 0 0 0 0.819608 0 0 0 0 0.8 0 0 0 0 0.776471 0 0 0 1 0"/>
<feBlend mode="normal" in2="shape" result="effect2_innerShadow_1467_12771"/>
</filter>
<filter id="filter3_i_1467_12771" x="7.85254" y="0.762903" width="26.54" height="27.7019" filterUnits="userSpaceOnUse" color-interpolation-filters="sRGB">
<feFlood flood-opacity="0" result="BackgroundImageFix"/>
<feBlend mode="normal" in="SourceGraphic" in2="BackgroundImageFix" result="shape"/>
<feColorMatrix in="SourceAlpha" type="matrix" values="0 0 0 0 0 0 0 0 0 0 0 0 0 0 0 0 0 0 127 0" result="hardAlpha"/>
<feOffset dy="-1.5505"/>
<feGaussianBlur stdDeviation="0.581439"/>
<feComposite in2="hardAlpha" operator="arithmetic" k2="-1" k3="1"/>
<feColorMatrix type="matrix" values="0 0 0 0 0.372549 0 0 0 0 0.172549 0 0 0 0 0.0627451 0 0 0 1 0"/>
<feBlend mode="normal" in2="shape" result="effect1_innerShadow_1467_12771"/>
</filter>
<clipPath id="clip0_1467_12771">
<rect x="18.0391" y="0.203125" width="25" height="25" rx="5.2282" transform="rotate(45 18.0391 0.203125)" fill="white"/>
</clipPath>
</defs>
</svg>
