<svg width="34" height="34" viewBox="0 0 34 34" fill="none" xmlns="http://www.w3.org/2000/svg">
<path d="M28.6663 3.66732H25.333V2.00065C25.333 1.55862 25.1574 1.1347 24.8449 0.82214C24.5323 0.509579 24.1084 0.333984 23.6663 0.333984C23.2243 0.333984 22.8004 0.509579 22.4878 0.82214C22.1753 1.1347 21.9997 1.55862 21.9997 2.00065V3.66732H11.9997V2.00065C11.9997 1.55862 11.8241 1.1347 11.5115 0.82214C11.199 0.509579 10.775 0.333984 10.333 0.333984C9.89098 0.333984 9.46706 0.509579 9.1545 0.82214C8.84194 1.1347 8.66634 1.55862 8.66634 2.00065V3.66732H5.33301C4.00693 3.66732 2.73516 4.1941 1.79747 5.13178C0.859792 6.06947 0.333008 7.34124 0.333008 8.66732V28.6673C0.333008 29.9934 0.859792 31.2652 1.79747 32.2029C2.73516 33.1405 4.00693 33.6673 5.33301 33.6673H28.6663C29.9924 33.6673 31.2642 33.1405 32.2019 32.2029C33.1396 31.2652 33.6663 29.9934 33.6663 28.6673V8.66732C33.6663 7.34124 33.1396 6.06947 32.2019 5.13178C31.2642 4.1941 29.9924 3.66732 28.6663 3.66732ZM30.333 28.6673C30.333 29.1093 30.1574 29.5333 29.8449 29.8458C29.5323 30.1584 29.1084 30.334 28.6663 30.334H5.33301C4.89098 30.334 4.46706 30.1584 4.1545 29.8458C3.84194 29.5333 3.66634 29.1093 3.66634 28.6673V17.0007H30.333V28.6673ZM30.333 13.6673H3.66634V8.66732C3.66634 8.22529 3.84194 7.80137 4.1545 7.48881C4.46706 7.17625 4.89098 7.00065 5.33301 7.00065H8.66634V8.66732C8.66634 9.10935 8.84194 9.53327 9.1545 9.84583C9.46706 10.1584 9.89098 10.334 10.333 10.334C10.775 10.334 11.199 10.1584 11.5115 9.84583C11.8241 9.53327 11.9997 9.10935 11.9997 8.66732V7.00065H21.9997V8.66732C21.9997 9.10935 22.1753 9.53327 22.4878 9.84583C22.8004 10.1584 23.2243 10.334 23.6663 10.334C24.1084 10.334 24.5323 10.1584 24.8449 9.84583C25.1574 9.53327 25.333 9.10935 25.333 8.66732V7.00065H28.6663C29.1084 7.00065 29.5323 7.17625 29.8449 7.48881C30.1574 7.80137 30.333 8.22529 30.333 8.66732V13.6673Z" fill="#0557E0" fill-opacity="0.3"/>
</svg>
