<svg width="15" height="24" viewBox="0 0 15 24" fill="none" xmlns="http://www.w3.org/2000/svg">
<path d="M13.7372 0.863939C14.0653 1.19211 14.2496 1.63715 14.2496 2.10119C14.2496 2.56523 14.0653 3.01027 13.7372 3.33844L5.07471 12.0009L13.7372 20.6634C14.056 20.9935 14.2324 21.4355 14.2284 21.8944C14.2244 22.3532 14.0404 22.7922 13.7159 23.1166C13.3914 23.4411 12.9525 23.6251 12.4937 23.6291C12.0348 23.6331 11.5928 23.4567 11.2627 23.1379L1.36296 13.2382C1.03489 12.91 0.850586 12.465 0.850586 12.0009C0.850586 11.5369 1.03489 11.0919 1.36296 10.7637L11.2627 0.863939C11.5909 0.535864 12.0359 0.351563 12.5 0.351562C12.964 0.351562 13.409 0.535864 13.7372 0.863939Z" fill="black" fill-opacity="0.3"/>
</svg>
