<svg width="15" height="24" viewBox="0 0 15 24" fill="none" xmlns="http://www.w3.org/2000/svg">
<path d="M1.26279 0.863939C0.934713 1.19211 0.750412 1.63715 0.750412 2.10119C0.750412 2.56523 0.934713 3.01027 1.26279 3.33844L9.92529 12.0009L1.26279 20.6634C0.944012 20.9935 0.767621 21.4355 0.771608 21.8944C0.775596 22.3532 0.959641 22.7922 1.28411 23.1166C1.60857 23.4411 2.04749 23.6251 2.50634 23.6291C2.96518 23.6331 3.40723 23.4567 3.73729 23.1379L13.637 13.2382C13.9651 12.91 14.1494 12.465 14.1494 12.0009C14.1494 11.5369 13.9651 11.0919 13.637 10.7637L3.73729 0.863939C3.40911 0.535864 2.96408 0.351563 2.50004 0.351562C2.036 0.351562 1.59096 0.535864 1.26279 0.863939Z" fill="#0557E0"/>
</svg>
