<svg width="173" height="80" viewBox="0 0 173 80" fill="none" xmlns="http://www.w3.org/2000/svg">
<path d="M89.2094 29.1874C90.4561 36.6098 88.7672 44.1725 84.4052 50.6998C80.0433 57.2271 73.2527 62.3534 65.0891 65.2818C56.9254 68.2102 47.846 68.7767 39.2622 66.8931C30.6785 65.0096 23.0712 60.7816 17.623 54.8663C12.1748 48.9511 9.1909 41.68 9.13508 34.1833C9.07925 26.6866 11.9547 19.3843 17.3143 13.4115C22.674 7.43871 30.2177 3.13006 38.7727 1.15532C47.3277 -0.819426 59.4178 0.433258 67.6244 3.27454C67.6244 3.27454 62.416 8.58061 63.4762 12.8154C64.9078 18.5334 73.5604 19.8653 73.5604 19.8653C73.5604 19.8653 72.6006 26.0856 76.7496 29.8209C80.8986 33.5563 89.2094 29.1874 89.2094 29.1874Z" fill="#FFD760"/>
<path d="M12.6537 68.8455C12.049 69.0121 11.4816 68.4815 11.6072 67.867L16.1774 45.5098C16.3089 44.8662 17.0948 44.6157 17.5746 45.0643L35.0049 61.3622C35.4847 61.8108 35.2874 62.6118 34.654 62.7862L12.6537 68.8455Z" fill="#FFD760"/>
<ellipse cx="50.4598" cy="14.8871" rx="3.36143" ry="3.15134" fill="#FFBC48"/>
<circle cx="20.193" cy="28.5403" r="2.10089" fill="#FFBC48"/>
<ellipse cx="31.5564" cy="14.887" rx="4.20178" ry="3.99169" fill="#FFBC48"/>
<path d="M40.3957 49.0225C41.9644 49.0505 43.1969 48.8544 44.0933 48.4343C45.0177 47.9861 45.4799 47.1877 45.4799 46.0392C45.4799 45.7031 45.3959 45.381 45.2278 45.0728C45.0877 44.7647 44.8076 44.4846 44.3874 44.2325C43.9673 43.9523 43.393 43.6722 42.6647 43.3921C41.9644 43.112 41.068 42.8179 39.9756 42.5097C38.715 42.1736 37.4405 41.7674 36.1519 41.2912C34.8914 40.815 33.7429 40.2128 32.7065 39.4845C31.6981 38.7561 30.8717 37.8598 30.2274 36.7953C29.5832 35.7309 29.261 34.4423 29.261 32.9297C29.261 31.333 29.5131 29.9464 30.0173 28.7699C30.5496 27.5654 31.2499 26.571 32.1182 25.7866C33.0146 24.9743 34.0511 24.372 35.2276 23.9799C36.4041 23.5597 37.6646 23.3356 39.0092 23.3076C39.4293 23.3076 40.0036 23.3076 40.7319 23.3076C41.4602 23.2796 42.2165 23.2796 43.0008 23.3076C43.8132 23.3356 44.5835 23.3636 45.3118 23.3916C46.0682 23.4196 46.6704 23.4757 47.1186 23.5597C48.015 23.7278 48.7433 24.1479 49.3035 24.8202C49.8918 25.4925 50.1579 26.2769 50.1019 27.1732C50.1019 27.5374 50.0318 27.9436 49.8918 28.3917C49.7797 28.8119 49.5696 29.2041 49.2615 29.5682C48.9814 29.9324 48.6032 30.2125 48.127 30.4086C47.6788 30.6047 47.1046 30.6607 46.4043 30.5767C45.5919 30.4646 44.6536 30.3806 43.5891 30.3246C42.5246 30.2405 41.3622 30.2265 40.1016 30.2826C38.9251 30.3386 38.0147 30.5487 37.3705 30.9128C36.7262 31.249 36.4041 31.8232 36.4041 32.6355C36.4041 33.4479 36.9643 34.1202 38.0848 34.6524C39.2052 35.1846 40.6759 35.6888 42.4966 36.165C44.3734 36.6693 45.9561 37.2715 47.2446 37.9718C48.5332 38.6441 49.5696 39.4284 50.354 40.3248C51.1663 41.1932 51.7406 42.1456 52.0767 43.182C52.4409 44.2185 52.6229 45.3249 52.6229 46.5014C52.6229 48.3222 52.2728 49.8629 51.5725 51.1234C50.9002 52.3839 49.9758 53.3924 48.7993 54.1487C47.6228 54.905 46.2502 55.4372 44.6816 55.7454C43.1409 56.0815 41.5022 56.2075 39.7655 56.1235C38.2808 56.0675 36.8242 55.8994 35.3956 55.6193C33.995 55.3672 32.7905 55.003 31.7821 54.5268C31.558 54.4148 31.2919 54.2467 30.9838 54.0226C30.7036 53.8265 30.4375 53.5604 30.1854 53.2243C29.9613 52.8601 29.7932 52.4399 29.6812 51.9637C29.5692 51.4875 29.5832 50.9413 29.7232 50.3251C29.8633 49.7368 30.1014 49.2606 30.4375 48.8964C30.7737 48.5043 31.1518 48.2102 31.572 48.0141C31.9922 47.818 32.3984 47.7059 32.7905 47.6779C33.2107 47.6499 33.5608 47.7059 33.841 47.846C34.5973 48.1261 35.5357 48.3782 36.6562 48.6023C37.8046 48.8264 39.0512 48.9665 40.3957 49.0225ZM70.8977 54.3167C70.0574 53.2243 69.175 51.9637 68.2506 50.5351C67.3542 49.0785 66.4578 47.6079 65.5615 46.1233C64.6931 44.6106 63.8527 43.14 63.0404 41.7114C62.2281 40.2548 61.5278 38.9662 60.9395 37.8458C61.0796 39.8626 61.2056 42.1316 61.3177 44.6526C61.4297 47.1457 61.5978 49.7228 61.8219 52.3839C61.8499 52.7481 61.7939 53.1262 61.6538 53.5184C61.5137 53.8826 61.3037 54.2187 61.0235 54.5268C60.7714 54.835 60.4353 55.0871 60.0151 55.2832C59.5949 55.5073 59.1327 55.6473 58.6285 55.7033C58.1523 55.7594 57.6901 55.7313 57.2419 55.6193C56.7937 55.5073 56.3876 55.3252 56.0234 55.0731C55.6593 54.821 55.3651 54.5268 55.141 54.1907C54.9169 53.8545 54.7769 53.4764 54.7209 53.0562C54.6648 52.2719 54.5948 51.2494 54.5108 49.9889C54.4548 48.7284 54.3987 47.3138 54.3427 45.7451C54.2867 44.1764 54.2447 42.5237 54.2167 40.787C54.2167 39.0503 54.2307 37.3275 54.2587 35.6188C54.2867 33.9101 54.3287 32.2714 54.3847 30.7027C54.4688 29.1341 54.5948 27.7475 54.7629 26.543C54.9029 25.7026 55.2951 24.9883 55.9394 24.4001C56.6117 23.8118 57.5361 23.5737 58.7126 23.6858C59.1888 23.7418 59.735 23.9098 60.3513 24.19C60.9675 24.4701 61.4297 24.9043 61.7378 25.4925C63.5306 29.1621 65.1973 32.4395 66.738 35.3247C68.2786 38.2099 69.7632 40.787 71.1919 43.056C71.1919 41.7394 71.1778 40.3808 71.1498 38.9802C71.1218 37.5516 71.0798 36.137 71.0238 34.7364C70.9678 33.3358 70.8977 31.9633 70.8137 30.6187C70.7297 29.2461 70.6176 27.9576 70.4775 26.7531C70.4215 26.3609 70.4635 25.9967 70.6036 25.6606C70.7717 25.2964 70.9958 24.9883 71.2759 24.7362C71.584 24.4561 71.9342 24.232 72.3263 24.0639C72.7465 23.8678 73.1667 23.7418 73.5869 23.6858C73.979 23.6297 74.3852 23.6437 74.8054 23.7278C75.2536 23.7838 75.6597 23.8958 76.0239 24.0639C76.4161 24.232 76.7522 24.4561 77.0323 24.7362C77.3125 24.9883 77.4805 25.3104 77.5365 25.7026C77.7046 26.9071 77.8167 28.3077 77.8727 29.9044C77.9567 31.5011 78.0127 33.1678 78.0408 34.9045C78.0968 36.6412 78.1108 38.406 78.0828 40.1988C78.0548 41.9635 78.0127 43.6442 77.9567 45.2409C77.9287 46.8376 77.8727 48.2802 77.7887 49.5687C77.7326 50.8573 77.6626 51.8797 77.5786 52.636C77.4665 53.5324 77.1304 54.2467 76.5701 54.7789C76.0099 55.3112 75.2956 55.6193 74.4272 55.7033C73.5869 55.7874 72.8726 55.6753 72.2843 55.3672C71.6961 55.0591 71.2339 54.7089 70.8977 54.3167ZM93.0631 23.6858C93.5393 23.6858 93.9875 23.7698 94.4077 23.9379C94.8279 24.1059 95.192 24.302 95.5001 24.5261C95.8363 24.7502 96.1024 24.9883 96.2985 25.2404C96.5226 25.4645 96.6766 25.6466 96.7607 25.7866C97.1528 26.4869 97.615 27.4393 98.1473 28.6439C98.6795 29.8484 99.2397 31.2069 99.828 32.7196C100.444 34.2042 101.061 35.7869 101.677 37.4676C102.321 39.1483 102.937 40.829 103.526 42.5097C104.114 44.1624 104.66 45.7451 105.164 47.2578C105.668 48.7704 106.089 50.101 106.425 51.2494C106.537 51.7256 106.551 52.2018 106.467 52.6781C106.411 53.1262 106.271 53.5464 106.047 53.9386C105.851 54.3308 105.57 54.6669 105.206 54.947C104.87 55.2271 104.478 55.4232 104.03 55.5353C103.385 55.7033 102.797 55.7454 102.265 55.6613C101.761 55.5773 101.313 55.4092 100.92 55.1571C100.556 54.933 100.248 54.6389 99.9961 54.2747C99.7439 53.9106 99.5479 53.5324 99.4078 53.1402C99.1557 52.3279 98.8476 51.3195 98.4834 50.115C98.1193 48.9105 97.7271 47.6359 97.3069 46.2913C96.8867 44.9468 96.4526 43.5882 96.0044 42.2156C95.5842 40.843 95.178 39.5685 94.7858 38.392C94.4217 37.2155 94.0855 36.2071 93.7774 35.3667C93.4693 34.4983 93.2452 33.9241 93.1051 33.644C92.9931 33.8681 92.839 34.2462 92.6429 34.7785C92.4749 35.3107 92.2648 35.955 92.0127 36.7113C91.7606 37.4676 91.4804 38.308 91.1723 39.2323C90.8922 40.1287 90.5981 41.0811 90.2899 42.0896H93.3152C93.7074 42.0896 94.0435 42.2016 94.3236 42.4257C94.6318 42.6218 94.8839 42.8879 95.08 43.224C95.3041 43.5602 95.4581 43.9523 95.5422 44.4005C95.6542 44.8207 95.7102 45.2409 95.7102 45.6611C95.7102 46.0252 95.6682 46.4174 95.5842 46.8376C95.5282 47.2297 95.4021 47.6079 95.206 47.9721C95.0099 48.3082 94.7578 48.5883 94.4497 48.8124C94.1416 49.0365 93.7494 49.1486 93.2732 49.1486H88.063C87.8389 49.9329 87.6148 50.6752 87.3907 51.3755C87.1666 52.0478 86.9845 52.636 86.8445 53.1402C86.7324 53.5324 86.5504 53.9106 86.2982 54.2747C86.0461 54.6389 85.738 54.947 85.3739 55.1991C85.0097 55.4512 84.5755 55.6193 84.0713 55.7033C83.5951 55.7874 83.0489 55.7454 82.4326 55.5773C81.2841 55.2972 80.4998 54.7509 80.0796 53.9386C79.6874 53.1262 79.6174 52.2299 79.8695 51.2494C80.2057 50.101 80.6258 48.7704 81.1301 47.2578C81.6343 45.7451 82.1805 44.1624 82.7687 42.5097C83.357 40.829 83.9593 39.1483 84.5755 37.4676C85.2198 35.7869 85.836 34.2042 86.4243 32.7196C87.0406 31.2069 87.6148 29.8484 88.147 28.6439C88.7073 27.4393 89.1835 26.4869 89.5756 25.7866C89.6597 25.6466 89.7997 25.4645 89.9958 25.2404C90.1919 24.9883 90.444 24.7502 90.7521 24.5261C91.0603 24.302 91.4104 24.1059 91.8026 23.9379C92.1947 23.7698 92.6149 23.6858 93.0631 23.6858ZM120.52 23.3076C121.164 23.3076 121.865 23.3216 122.621 23.3496C123.377 23.3496 124.05 23.3916 124.638 23.4757C125.366 23.5877 125.926 23.9939 126.319 24.6942C126.739 25.3945 126.921 26.1928 126.865 27.0892C126.865 27.4533 126.795 27.8455 126.655 28.2657C126.543 28.6579 126.361 29.036 126.108 29.4002C125.884 29.7643 125.59 30.0585 125.226 30.2826C124.862 30.5066 124.442 30.6047 123.966 30.5767C123.461 30.5487 122.901 30.5207 122.285 30.4926C121.669 30.4646 121.15 30.4506 120.73 30.4506C119.106 30.4506 117.719 30.6467 116.57 31.0389C115.45 31.403 114.54 31.9633 113.839 32.7196C113.139 33.4759 112.635 34.4423 112.327 35.6188C112.019 36.7673 111.864 38.1399 111.864 39.7366C111.864 42.6778 112.537 44.9468 113.881 46.5434C115.254 48.1401 117.061 48.9385 119.302 48.9385C120.366 48.9385 121.29 48.8404 122.075 48.6443C122.859 48.4202 123.531 48.1821 124.092 47.93C124.428 47.762 124.806 47.7059 125.226 47.762C125.674 47.79 126.094 47.916 126.487 48.1401C126.907 48.3642 127.271 48.6724 127.579 49.0645C127.915 49.4567 128.139 49.9329 128.251 50.4931C128.363 50.9973 128.377 51.4595 128.293 51.8797C128.237 52.2999 128.111 52.6781 127.915 53.0142C127.747 53.3503 127.523 53.6305 127.243 53.8545C126.991 54.1067 126.711 54.3167 126.403 54.4848C125.618 54.961 124.582 55.3672 123.293 55.7033C122.033 56.0395 120.688 56.1795 119.26 56.1235C116.851 56.1235 114.736 55.6753 112.915 54.7789C111.094 53.9106 109.567 52.7341 108.335 51.2494C107.13 49.7368 106.22 48.0001 105.604 46.0392C104.988 44.0784 104.679 42.0055 104.679 39.8206C104.679 37.6637 104.974 35.5908 105.562 33.602C106.15 31.6131 107.074 29.8624 108.335 28.3497C109.595 26.8091 111.22 25.5906 113.209 24.6942C115.226 23.7698 117.663 23.3076 120.52 23.3076ZM136.964 43.5602C137.02 45.2969 137.076 46.9356 137.132 48.4763C137.188 49.9889 137.272 51.3335 137.384 52.51C137.412 52.9582 137.342 53.3643 137.174 53.7285C137.006 54.1207 136.768 54.4568 136.46 54.7369C136.152 55.017 135.787 55.2411 135.367 55.4092C134.947 55.5773 134.513 55.6753 134.065 55.7033C133.028 55.7594 132.132 55.5633 131.375 55.1151C130.619 54.6949 130.199 54.0506 130.115 53.1823C130.031 52.3979 129.947 51.3615 129.863 50.0729C129.807 48.7564 129.751 47.2998 129.695 45.7031C129.667 44.0784 129.639 42.3697 129.611 40.5769C129.583 38.7842 129.583 37.0194 129.611 35.2827C129.667 33.5179 129.737 31.8372 129.821 30.2405C129.905 28.6158 130.017 27.2012 130.157 25.9967C130.213 25.6046 130.367 25.2544 130.619 24.9463C130.899 24.6382 131.221 24.386 131.586 24.19C131.978 23.9659 132.398 23.8118 132.846 23.7278C133.294 23.6437 133.728 23.6297 134.149 23.6858C134.569 23.7418 134.989 23.8538 135.409 24.0219C135.829 24.19 136.194 24.4141 136.502 24.6942C136.81 24.9743 137.048 25.3104 137.216 25.7026C137.384 26.0948 137.44 26.529 137.384 27.0052C137.3 27.8455 137.23 28.8259 137.174 29.9464C137.118 31.0389 137.062 32.2294 137.006 33.5179L144.905 24.6101C145.157 24.302 145.479 24.0779 145.872 23.9379C146.292 23.7978 146.726 23.7418 147.174 23.7698C147.622 23.7698 148.057 23.8538 148.477 24.0219C148.897 24.162 149.261 24.386 149.569 24.6942C149.961 25.0863 150.256 25.5205 150.452 25.9967C150.648 26.4449 150.746 26.8931 150.746 27.3413C150.774 27.7615 150.718 28.1817 150.578 28.6018C150.438 28.994 150.241 29.3301 149.989 29.6103L136.964 43.5602ZM151.88 50.241C152.16 50.6052 152.328 51.0113 152.384 51.4595C152.44 51.8797 152.412 52.3139 152.3 52.7621C152.216 53.2103 152.048 53.6305 151.796 54.0226C151.572 54.4148 151.292 54.7369 150.956 54.989C150.564 55.2972 150.143 55.5073 149.695 55.6193C149.275 55.7594 148.855 55.8154 148.435 55.7874C148.015 55.7874 147.622 55.6893 147.258 55.4932C146.922 55.3252 146.628 55.0871 146.376 54.7789L140.157 46.5855C139.905 46.2493 139.751 45.8712 139.695 45.451C139.639 45.0308 139.667 44.6246 139.779 44.2325C139.891 43.8123 140.059 43.4201 140.283 43.056C140.535 42.6638 140.844 42.3417 141.208 42.0896C141.544 41.8375 141.922 41.6414 142.342 41.5013C142.79 41.3612 143.239 41.3052 143.687 41.3332C144.135 41.3332 144.555 41.4173 144.947 41.5853C145.339 41.7534 145.662 42.0335 145.914 42.4257L151.88 50.241ZM161.018 54.5689C160.878 55.4652 160.429 56.1375 159.673 56.5857C158.917 57.0339 158.048 57.244 157.068 57.216C155.948 57.188 155.121 56.9219 154.589 56.4176C154.057 55.9134 153.791 55.4092 153.791 54.905C153.791 54.7089 153.791 54.4288 153.791 54.0646C153.791 53.7285 153.791 53.3924 153.791 53.0562C153.791 52.6921 153.777 52.3559 153.749 52.0478C153.749 51.7397 153.749 51.5296 153.749 51.4175C153.721 50.9693 153.819 50.5772 154.043 50.241C154.267 49.8769 154.547 49.5687 154.883 49.3166C155.247 49.0645 155.639 48.8824 156.06 48.7704C156.48 48.6303 156.872 48.5603 157.236 48.5603C157.656 48.5603 158.091 48.6163 158.539 48.7284C158.987 48.8124 159.379 48.9665 159.715 49.1906C160.079 49.3867 160.373 49.6388 160.598 49.9469C160.85 50.255 160.99 50.6052 161.018 50.9973C161.018 51.1094 161.018 51.3055 161.018 51.5856C161.046 51.8657 161.06 52.1878 161.06 52.552C161.06 52.9162 161.06 53.2803 161.06 53.6445C161.06 54.0086 161.046 54.3167 161.018 54.5689Z" fill="#0557E0"/>
</svg>
